<mxfile host="Electron" agent="Mozilla/5.0 (Windows NT 10.0; Win64; x64) AppleWebKit/537.36 (KHTML, like Gecko) draw.io/27.0.9 Chrome/134.0.6998.205 Electron/35.4.0 Safari/537.36" version="27.0.9">
  <diagram name="Page-1" id="2x-E53O6260fSBtkfEcv">
    <mxGraphModel dx="464" dy="850" grid="1" gridSize="10" guides="1" tooltips="1" connect="1" arrows="1" fold="1" page="1" pageScale="1" pageWidth="850" pageHeight="1100" math="0" shadow="0">
      <root>
        <mxCell id="0" />
        <mxCell id="1" parent="0" />
        <mxCell id="xT9z2CHGAunLlRbGTVXX-11" style="edgeStyle=orthogonalEdgeStyle;rounded=0;orthogonalLoop=1;jettySize=auto;html=1;exitX=1;exitY=0.5;exitDx=0;exitDy=0;entryX=0;entryY=0.75;entryDx=0;entryDy=0;" edge="1" parent="1" source="xT9z2CHGAunLlRbGTVXX-1" target="xT9z2CHGAunLlRbGTVXX-7">
          <mxGeometry relative="1" as="geometry" />
        </mxCell>
        <mxCell id="xT9z2CHGAunLlRbGTVXX-1" value="Ground Truth" style="rounded=1;whiteSpace=wrap;html=1;textDirection=ltr;rotation=0;" vertex="1" parent="1">
          <mxGeometry x="20" y="750" width="120" height="60" as="geometry" />
        </mxCell>
        <mxCell id="xT9z2CHGAunLlRbGTVXX-12" style="edgeStyle=orthogonalEdgeStyle;rounded=0;orthogonalLoop=1;jettySize=auto;html=1;exitX=1;exitY=0.5;exitDx=0;exitDy=0;entryX=0;entryY=0.25;entryDx=0;entryDy=0;" edge="1" parent="1" source="xT9z2CHGAunLlRbGTVXX-3" target="xT9z2CHGAunLlRbGTVXX-7">
          <mxGeometry relative="1" as="geometry" />
        </mxCell>
        <mxCell id="xT9z2CHGAunLlRbGTVXX-3" value="Question Text" style="rounded=1;whiteSpace=wrap;html=1;textDirection=ltr;rotation=0;" vertex="1" parent="1">
          <mxGeometry x="20" y="590" width="120" height="60" as="geometry" />
        </mxCell>
        <mxCell id="xT9z2CHGAunLlRbGTVXX-13" style="edgeStyle=orthogonalEdgeStyle;rounded=0;orthogonalLoop=1;jettySize=auto;html=1;exitX=1;exitY=0.5;exitDx=0;exitDy=0;entryX=0;entryY=0.75;entryDx=0;entryDy=0;" edge="1" parent="1" source="xT9z2CHGAunLlRbGTVXX-4" target="xT9z2CHGAunLlRbGTVXX-9">
          <mxGeometry relative="1" as="geometry" />
        </mxCell>
        <mxCell id="xT9z2CHGAunLlRbGTVXX-4" value="Registered Image" style="rounded=1;whiteSpace=wrap;html=1;textDirection=ltr;rotation=0;" vertex="1" parent="1">
          <mxGeometry x="20" y="430" width="120" height="60" as="geometry" />
        </mxCell>
        <mxCell id="xT9z2CHGAunLlRbGTVXX-14" style="edgeStyle=orthogonalEdgeStyle;rounded=0;orthogonalLoop=1;jettySize=auto;html=1;exitX=1;exitY=0.5;exitDx=0;exitDy=0;entryX=0;entryY=0.5;entryDx=0;entryDy=0;" edge="1" parent="1" source="xT9z2CHGAunLlRbGTVXX-5" target="xT9z2CHGAunLlRbGTVXX-9">
          <mxGeometry relative="1" as="geometry" />
        </mxCell>
        <mxCell id="xT9z2CHGAunLlRbGTVXX-5" value="Main Image" style="rounded=1;whiteSpace=wrap;html=1;textDirection=ltr;rotation=0;" vertex="1" parent="1">
          <mxGeometry x="20" y="270" width="120" height="60" as="geometry" />
        </mxCell>
        <mxCell id="xT9z2CHGAunLlRbGTVXX-15" style="edgeStyle=orthogonalEdgeStyle;rounded=0;orthogonalLoop=1;jettySize=auto;html=1;exitX=1;exitY=0.5;exitDx=0;exitDy=0;entryX=0;entryY=0.25;entryDx=0;entryDy=0;" edge="1" parent="1" source="xT9z2CHGAunLlRbGTVXX-6" target="xT9z2CHGAunLlRbGTVXX-9">
          <mxGeometry relative="1" as="geometry" />
        </mxCell>
        <mxCell id="xT9z2CHGAunLlRbGTVXX-6" value="Deformation Field" style="rounded=1;whiteSpace=wrap;html=1;textDirection=ltr;rotation=0;" vertex="1" parent="1">
          <mxGeometry x="20" y="110" width="120" height="60" as="geometry" />
        </mxCell>
        <mxCell id="xT9z2CHGAunLlRbGTVXX-7" value="ClinicalBERT&lt;div&gt;&lt;br&gt;&lt;/div&gt;&lt;div&gt;(frozen)&lt;/div&gt;" style="rounded=1;whiteSpace=wrap;html=1;" vertex="1" parent="1">
          <mxGeometry x="200" y="560" width="120" height="120" as="geometry" />
        </mxCell>
        <mxCell id="xT9z2CHGAunLlRbGTVXX-9" value="Vision&lt;div&gt;Transformer&lt;/div&gt;&lt;div&gt;&lt;br&gt;&lt;/div&gt;&lt;div&gt;VIT-B/16&lt;/div&gt;&lt;div&gt;&lt;br&gt;&lt;/div&gt;&lt;div&gt;(shared forzen)&lt;/div&gt;" style="rounded=1;whiteSpace=wrap;html=1;" vertex="1" parent="1">
          <mxGeometry x="200" y="160" width="120" height="280" as="geometry" />
        </mxCell>
        <mxCell id="xT9z2CHGAunLlRbGTVXX-16" value="feature_A, feature_B, feature_C" style="rounded=0;whiteSpace=wrap;html=1;fillStyle=auto;gradientColor=none;dashed=1;rotation=-90;" vertex="1" parent="1">
          <mxGeometry x="260" y="280" width="280" height="40" as="geometry" />
        </mxCell>
        <mxCell id="xT9z2CHGAunLlRbGTVXX-17" value="Vision&lt;div&gt;Transformer&lt;/div&gt;&lt;div&gt;&lt;br&gt;&lt;/div&gt;&lt;div&gt;VIT-B/16&lt;/div&gt;&lt;div&gt;&lt;br&gt;&lt;/div&gt;&lt;div&gt;(shared forzen)&lt;/div&gt;" style="rounded=1;whiteSpace=wrap;html=1;" vertex="1" parent="1">
          <mxGeometry x="480" y="160" width="120" height="280" as="geometry" />
        </mxCell>
      </root>
    </mxGraphModel>
  </diagram>
</mxfile>
